<svg width="829" height="745" viewBox="0 0 829 745" fill="none" xmlns="http://www.w3.org/2000/svg">
<g id="scene">
<g id="planet">
<path id="Vector" d="M382.9 692.59C561.658 692.59 706.57 547.678 706.57 368.92C706.57 190.162 561.658 45.25 382.9 45.25C204.142 45.25 59.23 190.162 59.23 368.92C59.23 547.678 204.142 692.59 382.9 692.59Z" fill="url(#paint0_linear)"/>
<path id="Vector_2" d="M382.9 684.65C557.273 684.65 698.63 543.293 698.63 368.92C698.63 194.547 557.273 53.19 382.9 53.19C208.527 53.19 67.17 194.547 67.17 368.92C67.17 543.293 208.527 684.65 382.9 684.65Z" fill="#60605B"/>
<path id="Vector_3" opacity="0.05" d="M280.81 225.65C302.471 225.65 320.03 208.091 320.03 186.43C320.03 164.769 302.471 147.21 280.81 147.21C259.149 147.21 241.59 164.769 241.59 186.43C241.59 208.091 259.149 225.65 280.81 225.65Z" fill="black"/>
<path id="Vector_4" opacity="0.05" d="M400.77 645.65C422.431 645.65 439.99 628.091 439.99 606.43C439.99 584.769 422.431 567.21 400.77 567.21C379.109 567.21 361.55 584.769 361.55 606.43C361.55 628.091 379.109 645.65 400.77 645.65Z" fill="black"/>
<path id="Vector_5" opacity="0.05" d="M439.99 404.22C484.278 404.22 520.18 368.318 520.18 324.03C520.18 279.742 484.278 243.84 439.99 243.84C395.702 243.84 359.8 279.742 359.8 324.03C359.8 368.318 395.702 404.22 439.99 404.22Z" fill="black"/>
<path id="Vector_6" d="M509.73 462.89C470.01 462.89 427.73 460.99 384.51 457.17C288.44 448.69 198.89 431.76 132.37 409.51C65.37 387.08 29.57 361.74 31.65 338.16C32.7 326.22 43.22 315.56 62.9 306.48L63.9 308.73C45.08 317.41 35.05 327.38 34.08 338.38C33.11 349.38 41.43 361.22 58.83 373.2C75.93 384.97 100.92 396.39 133.12 407.2C199.47 429.4 288.81 446.28 384.7 454.74C480.59 463.2 571.51 462.23 640.7 452C674.28 447 700.89 440.16 719.79 431.57C739.03 422.83 749.28 412.75 750.26 401.62C751.38 388.95 739.93 375.06 717.16 361.46L718.43 359.33C742.43 373.66 753.96 387.96 752.73 401.84C750.65 425.43 710.99 444.11 641.07 454.44C603 460.05 558.23 462.88 509.73 462.89Z" fill="url(#paint1_linear)"/>
<path id="Vector_7" opacity="0.5" d="M717.83 357.89C740.54 371.46 752.74 385.56 751.53 399.22C747.34 446.69 583.07 470.97 384.62 453.45C186.17 435.93 28.69 383.25 32.88 335.78C33.88 324.05 44.73 313.78 63.41 305.12" stroke="#BDBDBD" stroke-width="3" stroke-miterlimit="10"/>
<path id="Vector_8" d="M423.39 509.39C394.77 497.05 365.56 483.28 336.58 468.45C250.71 424.53 174.06 375.24 120.75 329.64C67.03 283.7 43.39 246.79 54.17 225.7C59.63 215.02 73.38 209.09 95.02 208.06L95.14 210.53C74.44 211.53 61.4 216.99 56.37 226.82C51.34 236.65 54.61 250.75 66.25 268.38C77.68 285.7 96.56 305.68 122.36 327.74C175.52 373.24 252 422.42 337.7 466.25C366.64 481.05 395.79 494.8 424.37 507.12L423.39 509.39Z" fill="url(#paint2_linear)"/>
<path id="CarPath" d="M546 551C509.13 537.188 470.934 521.584 432.148 504.35C199.337 400.888 33.7037 277.773 62.1865 229.39C69.2219 217.437 87.4535 211.141 114.44 210" stroke="#BDBDBD" stroke-width="3" stroke-miterlimit="10"/>
<path id="Vector_9" d="M655.73 580.19C629.73 580.19 593.06 571.69 543.56 554.63L544.37 552.29C638.83 584.83 685.56 586.15 700.62 556.7C706.41 545.38 701.01 528.21 685.01 507.05L687.01 505.56C703.87 527.84 709.2 545.43 702.85 557.83C695.2 572.72 680.12 580.18 655.73 580.19Z" fill="url(#paint3_linear)"/>
<path id="Vector_10" d="M686 503.82C702 524.92 708 542.57 701.73 554.82C687.34 582.95 645.13 585.82 543.97 551.02" stroke="#BDBDBD" stroke-width="3" stroke-miterlimit="10"/>
</g>
<g id="stars">
<g id="star11" opacity="0.5">
<path id="Vector_11" opacity="0.5" d="M97.6 661.7H94.38V679.93H97.6V661.7Z" fill="#47E6B1"/>
<path id="Vector_12" opacity="0.5" d="M105.1 672.43V669.21H86.87V672.43H105.1Z" fill="#47E6B1"/>
</g>
<g id="star10" opacity="0.5">
<path id="Vector_13" opacity="0.5" d="M751.79 3.21997H748.57V21.45H751.79V3.21997Z" fill="#47E6B1"/>
<path id="Vector_14" opacity="0.5" d="M759.29 13.95V10.73L741.06 10.73V13.95L759.29 13.95Z" fill="#47E6B1"/>
</g>
<g id="star9" opacity="0.5">
<path id="Vector_15" opacity="0.5" d="M821.5 500.83H818.28V519.06H821.5V500.83Z" fill="#47E6B1"/>
<path id="Vector_16" opacity="0.5" d="M829 511.56V508.34H810.77V511.56H829Z" fill="#47E6B1"/>
</g>
<g id="star8" opacity="0.5">
<path id="Vector_17" opacity="0.5" d="M108.32 47.19H105.1V65.42H108.32V47.19Z" fill="#47E6B1"/>
<path id="Vector_18" opacity="0.5" d="M115.83 57.92V54.7H97.6V57.92H115.83Z" fill="#47E6B1"/>
</g>
<path id="star7" opacity="0.5" d="M200.22 724.22C199.333 723.835 198.619 723.137 198.213 722.259C197.807 721.381 197.739 720.385 198.02 719.46C198.067 719.317 198.098 719.17 198.11 719.02C198.12 718.603 197.999 718.194 197.765 717.849C197.53 717.504 197.194 717.241 196.803 717.097C196.412 716.953 195.985 716.934 195.583 717.044C195.181 717.154 194.823 717.387 194.56 717.71C194.471 717.831 194.398 717.962 194.34 718.1C193.955 718.987 193.257 719.701 192.379 720.107C191.501 720.513 190.505 720.581 189.58 720.3C189.437 720.253 189.29 720.222 189.14 720.21C188.723 720.2 188.314 720.321 187.969 720.555C187.624 720.79 187.361 721.126 187.217 721.517C187.073 721.908 187.054 722.335 187.164 722.737C187.274 723.139 187.507 723.497 187.83 723.76C187.951 723.849 188.082 723.922 188.22 723.98C189.107 724.365 189.821 725.063 190.227 725.941C190.633 726.819 190.701 727.815 190.42 728.74C190.373 728.883 190.342 729.03 190.33 729.18C190.32 729.597 190.441 730.006 190.675 730.351C190.91 730.696 191.246 730.959 191.637 731.103C192.028 731.247 192.455 731.266 192.857 731.156C193.259 731.046 193.617 730.813 193.88 730.49C193.969 730.369 194.042 730.238 194.1 730.1C194.485 729.213 195.183 728.499 196.061 728.093C196.939 727.687 197.935 727.619 198.86 727.9C199.003 727.947 199.15 727.978 199.3 727.99C199.717 728 200.126 727.879 200.471 727.645C200.816 727.41 201.079 727.074 201.223 726.683C201.367 726.292 201.386 725.865 201.276 725.463C201.166 725.061 200.933 724.703 200.61 724.44C200.489 724.352 200.358 724.278 200.22 724.22Z" fill="#4D8AF0"/>
<path id="star6" opacity="0.5" d="M396.47 737.13C395.583 736.745 394.869 736.047 394.463 735.169C394.057 734.291 393.989 733.295 394.27 732.37C394.317 732.227 394.348 732.08 394.36 731.93C394.37 731.513 394.249 731.104 394.015 730.759C393.78 730.414 393.444 730.151 393.053 730.007C392.662 729.863 392.235 729.844 391.833 729.954C391.431 730.064 391.073 730.297 390.81 730.62C390.721 730.741 390.648 730.872 390.59 731.01C390.205 731.897 389.507 732.611 388.629 733.017C387.751 733.423 386.755 733.491 385.83 733.21C385.687 733.163 385.54 733.132 385.39 733.12C384.973 733.11 384.564 733.231 384.219 733.465C383.874 733.7 383.611 734.036 383.467 734.427C383.323 734.818 383.304 735.245 383.414 735.647C383.524 736.049 383.757 736.407 384.08 736.67C384.201 736.759 384.332 736.832 384.47 736.89C385.357 737.275 386.071 737.973 386.477 738.851C386.883 739.729 386.951 740.725 386.67 741.65C386.623 741.793 386.592 741.94 386.58 742.09C386.57 742.507 386.691 742.916 386.925 743.261C387.16 743.606 387.496 743.869 387.887 744.013C388.278 744.157 388.705 744.176 389.107 744.066C389.509 743.956 389.867 743.723 390.13 743.4C390.219 743.279 390.292 743.148 390.35 743.01C390.735 742.123 391.433 741.409 392.311 741.003C393.189 740.597 394.185 740.529 395.11 740.81C395.253 740.857 395.4 740.888 395.55 740.9C395.967 740.91 396.376 740.789 396.721 740.555C397.066 740.32 397.329 739.984 397.473 739.593C397.617 739.202 397.636 738.775 397.526 738.373C397.416 737.971 397.183 737.613 396.86 737.35C396.739 737.261 396.608 737.188 396.47 737.13Z" fill="#4D8AF0"/>
<path id="star5" opacity="0.5" d="M784.7 219.13C783.813 218.745 783.099 218.047 782.693 217.169C782.287 216.291 782.219 215.295 782.5 214.37C782.547 214.227 782.578 214.08 782.59 213.93C782.6 213.513 782.479 213.104 782.245 212.759C782.01 212.414 781.674 212.151 781.283 212.007C780.892 211.863 780.465 211.844 780.063 211.954C779.661 212.064 779.303 212.297 779.04 212.62C778.951 212.741 778.878 212.872 778.82 213.01C778.435 213.897 777.737 214.611 776.859 215.017C775.981 215.423 774.985 215.491 774.06 215.21C773.917 215.163 773.77 215.132 773.62 215.12C773.203 215.11 772.794 215.231 772.449 215.465C772.104 215.7 771.841 216.036 771.697 216.427C771.553 216.818 771.534 217.245 771.644 217.647C771.754 218.049 771.987 218.407 772.31 218.67C772.431 218.759 772.562 218.832 772.7 218.89C773.587 219.275 774.301 219.973 774.707 220.851C775.113 221.729 775.181 222.725 774.9 223.65C774.853 223.793 774.822 223.94 774.81 224.09C774.8 224.507 774.921 224.916 775.155 225.261C775.39 225.606 775.726 225.869 776.117 226.013C776.508 226.157 776.935 226.176 777.337 226.066C777.739 225.956 778.097 225.723 778.36 225.4C778.449 225.279 778.522 225.148 778.58 225.01C778.965 224.123 779.663 223.409 780.541 223.003C781.419 222.597 782.415 222.529 783.34 222.81C783.483 222.857 783.63 222.888 783.78 222.9C784.197 222.91 784.606 222.789 784.951 222.555C785.296 222.32 785.559 221.984 785.703 221.593C785.847 221.202 785.866 220.775 785.756 220.373C785.646 219.971 785.413 219.613 785.09 219.35C784.969 219.261 784.838 219.188 784.7 219.13Z" fill="#4D8AF0"/>
<path id="star4" opacity="0.5" d="M20.26 502.93C19.3731 502.545 18.6588 501.847 18.2531 500.969C17.8474 500.091 17.7787 499.095 18.06 498.17C18.1074 498.027 18.1376 497.88 18.15 497.73C18.1597 497.313 18.039 496.904 17.8046 496.559C17.5703 496.214 17.234 495.951 16.8429 495.807C16.4518 495.663 16.0253 495.644 15.6232 495.754C15.2211 495.864 14.8633 496.097 14.6 496.42C14.5115 496.541 14.4376 496.672 14.38 496.81C13.9948 497.697 13.2969 498.411 12.4191 498.817C11.5414 499.223 10.5451 499.291 9.61998 499.01C9.47741 498.963 9.3297 498.932 9.17998 498.92C8.76319 498.91 8.35379 499.031 8.00899 499.265C7.66419 499.5 7.40124 499.836 7.25691 500.227C7.11258 500.618 7.09409 501.045 7.20401 501.447C7.31393 501.849 7.54677 502.207 7.86998 502.47C7.9908 502.559 8.12172 502.632 8.25998 502.69C9.14689 503.075 9.86119 503.773 10.2669 504.651C10.6725 505.529 10.7413 506.525 10.46 507.45C10.4126 507.593 10.3824 507.74 10.37 507.89C10.3602 508.307 10.481 508.716 10.7153 509.061C10.9497 509.406 11.2859 509.669 11.677 509.813C12.0682 509.957 12.4946 509.976 12.8968 509.866C13.2989 509.756 13.6567 509.523 13.92 509.2C14.0085 509.079 14.0824 508.948 14.14 508.81C14.5252 507.923 15.2231 507.209 16.1008 506.803C16.9786 506.398 17.9748 506.329 18.9 506.61C19.0425 506.657 19.1903 506.688 19.34 506.7C19.7568 506.71 20.1662 506.589 20.511 506.355C20.8558 506.12 21.1187 505.784 21.2631 505.393C21.4074 505.002 21.4259 504.575 21.316 504.173C21.206 503.771 20.9732 503.413 20.65 503.15C20.5292 503.062 20.3982 502.988 20.26 502.93Z" fill="#4D8AF0"/>
<path id="star3" opacity="0.5" d="M6.43 244.51C9.98119 244.51 12.86 241.631 12.86 238.08C12.86 234.529 9.98119 231.65 6.43 231.65C2.87881 231.65 0 234.529 0 238.08C0 241.631 2.87881 244.51 6.43 244.51Z" fill="#F55F44"/>
<path id="star2" opacity="0.5" d="M530.86 28.95C534.411 28.95 537.29 26.0712 537.29 22.52C537.29 18.9688 534.411 16.09 530.86 16.09C527.309 16.09 524.43 18.9688 524.43 22.52C524.43 26.0712 527.309 28.95 530.86 28.95Z" fill="#4D8AF0"/>
<path id="star1" opacity="0.5" d="M176.95 12.86C180.501 12.86 183.38 9.98119 183.38 6.43C183.38 2.87881 180.501 0 176.95 0C173.399 0 170.52 2.87881 170.52 6.43C170.52 9.98119 173.399 12.86 176.95 12.86Z" fill="#47E6B1"/>
<path id="star" opacity="0.5" d="M653.12 698.16C656.671 698.16 659.55 695.281 659.55 691.73C659.55 688.179 656.671 685.3 653.12 685.3C649.569 685.3 646.69 688.179 646.69 691.73C646.69 695.281 649.569 698.16 653.12 698.16Z" fill="#F55F44"/>
</g>
<g id="car">
<path id="Vector_19" d="M501.59 489.28C499.797 488.35 497.708 488.17 495.782 488.779C493.857 489.389 492.252 490.738 491.32 492.53L490.54 494.03L488.76 493.1L472.85 484.84L469.39 483.04C468.906 482.79 468.364 482.675 467.82 482.71C452.59 477.71 440.37 487.34 432.49 502.51C429.684 507.7 427.825 513.348 427 519.19L426.82 519.1C425.94 525.35 426.76 531.21 429.82 536.17L430.08 535.66C431.611 538.178 433.582 540.4 435.9 542.22C435.978 542.544 436.124 542.847 436.329 543.11C436.535 543.372 436.794 543.587 437.09 543.74L458.87 555.05L457.21 558.24C456.28 560.033 456.1 562.122 456.709 564.048C457.319 565.974 458.668 567.579 460.46 568.51L465.63 558.51L492.49 572.46L494.25 569.08L496.01 565.7L498.64 560.63H498.73L492.63 572.37L505.48 579.13C521.12 587.25 533.07 576.82 541.75 560.66V560.57L542.28 559.57V559.48L542.73 558.59C551.03 542.14 552.73 526.38 537.01 518.23L524.2 511.63L517.13 525.25H517.04L520.65 518.3L522.31 515.11L524.16 511.54L497.3 497.54L501.59 489.28ZM460.59 547.36L460.67 547.43H460.58L460.59 547.36Z" fill="url(#paint4_linear)"/>
<path id="Vector_20" d="M494.795 502.933L468.372 553.8L493.805 567.011L520.228 516.145L494.795 502.933Z" fill="#4F617D"/>
<path id="Vector_21" d="M539 558.01V557.92C530.79 573.72 519.38 584.17 504.33 576.36L492.22 570.07L522 512.84L534.1 519.13C549.15 526.95 547.21 542.21 539 558.01Z" fill="#FF656A"/>
<path id="Vector_22" d="M529.65 571.43C533.414 567.429 536.565 562.894 539 557.97C541.253 553.765 542.989 549.302 544.17 544.68L539 541.99L525 568.99L529.65 571.43Z" fill="#4A5C81"/>
<path id="Vector_23" d="M497.931 559.061L515.273 525.677L516.205 526.161C516.708 526.422 517.155 526.78 517.52 527.215C517.885 527.649 518.161 528.151 518.332 528.692C518.503 529.233 518.566 529.802 518.517 530.367C518.468 530.932 518.308 531.482 518.047 531.986L504.679 557.721C504.15 558.738 503.24 559.503 502.148 559.848C501.055 560.194 499.87 560.091 498.854 559.563L497.922 559.079L497.931 559.061Z" fill="#4A5C81"/>
<path id="Vector_24" d="M440.761 537.01L441.406 535.768L495.45 563.841L492.149 570.195L443.226 544.782C442.553 544.434 441.956 543.957 441.468 543.377C440.98 542.798 440.611 542.129 440.382 541.407C440.153 540.685 440.068 539.925 440.133 539.171C440.198 538.416 440.412 537.682 440.761 537.01Z" fill="#FF6469"/>
<path id="Vector_25" d="M464.622 491.068L465.268 489.826C465.972 488.47 467.186 487.45 468.642 486.989C470.099 486.529 471.679 486.665 473.034 487.37L521.966 512.788L518.666 519.142L464.622 491.068Z" fill="#FF6469"/>
<path id="Vector_26" d="M488.65 495.41L458.93 552.64L443.93 544.87C427.4 536.28 427.49 520.06 435.69 504.26C443.9 488.46 457.12 479.06 473.69 487.64L488.65 495.41Z" fill="#FF656A"/>
<path id="Vector_27" d="M433.18 535.93L439.18 524.43L430.39 519.87C429.53 525.75 430.31 531.26 433.18 535.93Z" fill="#FFF6D5"/>
<path id="Vector_28" d="M459.89 484.5L453.89 496L445.1 491.44C449.47 487.37 454.42 484.83 459.89 484.5Z" fill="#FFF6D5"/>
<path id="Vector_29" d="M458.325 558.017L460.63 553.58L466.984 556.88L462.024 566.429L460.799 565.793C460.126 565.446 459.527 564.969 459.037 564.39C458.548 563.811 458.178 563.141 457.948 562.418C457.718 561.696 457.633 560.935 457.698 560.18C457.763 559.425 457.976 558.69 458.325 558.017Z" fill="#FF6469"/>
<path id="Vector_30" d="M500.689 491.754L495.734 501.294L489.38 497.993L491.685 493.556C492.389 492.201 493.603 491.18 495.059 490.719C496.516 490.259 498.096 490.396 499.451 491.1L500.694 491.745L500.689 491.754Z" fill="#FF6469"/>
<path id="Vector_31" d="M492.44 503.44L467.58 551.31L446 532.01C444.321 530.508 443.19 528.49 442.784 526.274C442.379 524.057 442.722 521.77 443.76 519.77L453 501.99C454.042 499.983 455.725 498.381 457.781 497.439C459.837 496.497 462.149 496.268 464.35 496.79L492.44 503.44Z" fill="#53678B"/>
<path id="Vector_32" d="M468.67 549.63C458.13 544.16 454.58 530.12 460.74 518.26C466.9 506.4 480.43 501.26 490.96 506.71" fill="#658BC8"/>
<path id="Vector_33" d="M494.16 504.45L469.39 552.14L464.62 549.66L467.98 547.08L488.33 507.91L489.39 501.97L494.16 504.45Z" fill="#FF656A"/>
<path id="Vector_34" opacity="0.05" d="M494.16 504.45L469.39 552.14L464.62 549.66L467.98 547.08L488.33 507.91L489.39 501.97L494.16 504.45Z" fill="black"/>
<path id="Vector_35" d="M481.71 528.331L478.409 534.685L484.763 537.985L488.064 531.632L481.71 528.331Z" fill="#53678B"/>
<path id="Vector_36" d="M488.019 535.628C489.842 532.119 490.608 528.904 489.731 528.449C488.854 527.993 486.665 530.468 484.842 533.977C483.019 537.487 482.252 540.701 483.13 541.156C484.007 541.612 486.196 539.137 488.019 535.628Z" fill="#53678B"/>
<path id="Vector_37" opacity="0.05" d="M503.86 568.03C505.247 568.974 506.812 569.624 508.46 569.939C510.107 570.255 511.802 570.229 513.44 569.863C515.077 569.498 516.622 568.801 517.979 567.814C519.336 566.828 520.477 565.574 521.33 564.13" fill="black"/>
<path id="Vector_38" opacity="0.05" d="M526.16 525.13C527.727 525.723 529.155 526.631 530.358 527.797C531.56 528.963 532.511 530.363 533.152 531.911C533.793 533.459 534.11 535.121 534.084 536.796C534.058 538.471 533.689 540.123 533 541.65" fill="black"/>
<path id="Vector_39" opacity="0.05" d="M448.89 525.34C448.89 525.34 447.48 512.5 460.45 503.09L448.89 525.34Z" fill="black"/>
<path id="Vector_40" opacity="0.05" d="M454.89 528.46C454.89 528.46 453.48 515.62 466.45 506.21L454.89 528.46Z" fill="black"/>
<path id="Vector_41" d="M471.989 535.38C473.356 532.749 472.331 529.507 469.699 528.14C467.067 526.772 463.825 527.798 462.458 530.43C461.091 533.061 462.116 536.303 464.748 537.67C467.38 539.038 470.622 538.012 471.989 535.38Z" fill="#4A77BE"/>
<path id="Vector_42" d="M477.895 516.248C478.806 514.494 478.123 512.332 476.368 511.421C474.613 510.509 472.452 511.193 471.541 512.948C470.629 514.702 471.313 516.863 473.067 517.775C474.822 518.686 476.983 518.003 477.895 516.248Z" fill="#4A77BE"/>
<path id="Vector_43" d="M486.327 527.925L486.117 526.896C486.003 526.335 486.116 525.751 486.432 525.273C486.748 524.795 487.241 524.462 487.802 524.348L499.317 521.998C499.891 521.88 500.489 521.996 500.978 522.319C501.467 522.643 501.808 523.147 501.925 523.721L502.559 526.828L488.839 529.628C488.28 529.731 487.704 529.61 487.234 529.292C486.764 528.973 486.438 528.482 486.327 527.925Z" fill="#CDEFFF"/>
<path id="Vector_44" opacity="0.05" d="M493.089 529.787L492.023 524.524L498.305 523.251C499.428 523.024 500.595 523.252 501.55 523.885C502.505 524.518 503.169 525.505 503.397 526.628L503.605 527.657L493.089 529.787Z" fill="black"/>
<path id="Vector_45" d="M483.434 552.251L487.763 543.918L497.631 549.044L493.302 557.377C492.758 558.424 491.82 559.213 490.695 559.568C489.57 559.924 488.349 559.819 487.302 559.275L485.376 558.274C484.851 558.009 484.383 557.642 484.001 557.194C483.618 556.747 483.328 556.228 483.148 555.668C482.967 555.108 482.9 554.517 482.949 553.931C482.998 553.344 483.163 552.773 483.434 552.251Z" fill="#CDEFFF"/>
<path id="Vector_46" d="M493.53 556.4L491.74 560.23C489.8 563.45 485.1 564.33 481.05 562.23L476.35 559.79L478.9 554.87L493.53 556.4Z" fill="#CDEFFF"/>
<path id="Vector_47" d="M467.563 552.773L468.061 551.815C468.334 551.29 468.804 550.895 469.368 550.717C469.932 550.539 470.543 550.591 471.068 550.864L478.922 554.944L476.368 559.86L468.514 555.78C467.99 555.508 467.595 555.038 467.416 554.474C467.238 553.91 467.291 553.298 467.563 552.773Z" fill="#CDEFFF"/>
<path id="Vector_48" opacity="0.05" d="M491.92 549.13C493.549 549.978 495.413 550.259 497.22 549.93L497.48 549.42L487.88 544.42C488.565 546.454 490.014 548.143 491.92 549.13Z" fill="black"/>
<path id="Vector_49" d="M507.108 530.452L502.784 538.776L492.952 533.668L497.28 525.336C497.55 524.817 497.919 524.357 498.366 523.981C498.813 523.605 499.33 523.32 499.888 523.144C500.445 522.968 501.031 522.903 501.613 522.954C502.196 523.004 502.762 523.169 503.281 523.438L505.206 524.438C505.725 524.708 506.185 525.077 506.562 525.524C506.938 525.971 507.222 526.488 507.398 527.045C507.574 527.603 507.639 528.189 507.589 528.771C507.538 529.353 507.373 529.92 507.104 530.439L507.108 530.452Z" fill="#CDEFFF"/>
<path id="Vector_50" opacity="0.05" d="M499.72 534.13C501.354 534.975 502.659 536.34 503.43 538.01L503.17 538.52L493.57 533.52C495.622 532.922 497.826 533.141 499.72 534.13Z" fill="black"/>
<path id="Vector_51" d="M503.218 545.208C505.334 541.135 503.748 536.118 499.675 534.003C495.602 531.887 490.585 533.474 488.47 537.546C486.354 541.619 487.941 546.636 492.013 548.751C496.086 550.867 501.103 549.281 503.218 545.208Z" fill="#CDEFFF"/>
<path id="Vector_52" d="M502.805 545.332C504.92 541.259 503.334 536.242 499.261 534.126C495.188 532.011 490.172 533.597 488.056 537.67C485.94 541.743 487.527 546.76 491.6 548.875C495.672 550.991 500.689 549.404 502.805 545.332Z" fill="#CDEFFF"/>
<path id="Vector_53" d="M488 537.59C487.327 538.884 487.007 540.332 487.072 541.79C487.137 543.247 487.584 544.661 488.37 545.89C489.825 545.823 491.237 545.375 492.464 544.59C493.691 543.806 494.69 542.713 495.362 541.42C496.033 540.128 496.353 538.682 496.29 537.227C496.226 535.772 495.781 534.359 495 533.13C493.544 533.194 492.131 533.639 490.902 534.422C489.674 535.205 488.673 536.298 488 537.59Z" fill="#658BC8"/>
</g>
</g>
<defs>
<linearGradient id="paint0_linear" x1="382.9" y1="692.59" x2="382.9" y2="45.25" gradientUnits="userSpaceOnUse">
<stop stop-color="#808080" stop-opacity="0.25"/>
<stop offset="0.54" stop-color="#808080" stop-opacity="0.12"/>
<stop offset="1" stop-color="#808080" stop-opacity="0.1"/>
</linearGradient>
<linearGradient id="paint1_linear" x1="416347" y1="84730.3" x2="416347" y2="60264.7" gradientUnits="userSpaceOnUse">
<stop stop-color="#808080" stop-opacity="0.25"/>
<stop offset="0.54" stop-color="#808080" stop-opacity="0.12"/>
<stop offset="1" stop-color="#808080" stop-opacity="0.1"/>
</linearGradient>
<linearGradient id="paint2_linear" x1="157721" y1="176866" x2="157721" y2="86072" gradientUnits="userSpaceOnUse">
<stop stop-color="#808080" stop-opacity="0.25"/>
<stop offset="0.54" stop-color="#808080" stop-opacity="0.12"/>
<stop offset="1" stop-color="#808080" stop-opacity="0.1"/>
</linearGradient>
<linearGradient id="paint3_linear" x1="131584" y1="49542" x2="131584" y2="43971.6" gradientUnits="userSpaceOnUse">
<stop stop-color="#808080" stop-opacity="0.25"/>
<stop offset="0.54" stop-color="#808080" stop-opacity="0.12"/>
<stop offset="1" stop-color="#808080" stop-opacity="0.1"/>
</linearGradient>
<linearGradient id="paint4_linear" x1="101997" y1="-47146.4" x2="90948.7" y2="-52885.7" gradientUnits="userSpaceOnUse">
<stop stop-color="#808080" stop-opacity="0.25"/>
<stop offset="0.54" stop-color="#808080" stop-opacity="0.12"/>
<stop offset="1" stop-color="#808080" stop-opacity="0.1"/>
</linearGradient>
</defs>
</svg>
